<?xml version="1.0" standalone="no"?>
<svg xmlns:xlink="http://www.w3.org/1999/xlink" id="wave" style="transform:rotate(180deg); transition: 0.3s" viewBox="0 0 1440 120" version="1.1" xmlns="http://www.w3.org/2000/svg"><defs><linearGradient id="sw-gradient-0" x1="0" x2="0" y1="1" y2="0"><stop stop-color="rgba(248, 238, 238, 1)" offset="0%"/><stop stop-color="rgba(248, 238, 238, 1)" offset="100%"/></linearGradient></defs><path style="transform:translate(0, 0px); opacity:1" fill="url(#sw-gradient-0)" d="M0,48L60,58C120,68,240,88,360,86C480,84,600,60,720,46C840,32,960,28,1080,30C1200,32,1320,40,1440,52C1560,64,1680,80,1800,84C1920,88,2040,80,2160,74C2280,68,2400,64,2520,56C2640,48,2760,36,2880,28C3000,20,3120,16,3240,20C3360,24,3480,36,3600,46C3720,56,3840,64,3960,70C4080,76,4200,80,4320,84C4440,88,4560,92,4680,94C4800,96,4920,96,5040,90C5160,84,5280,72,5400,62C5520,52,5640,44,5760,42C5880,40,6000,44,6120,42C6240,40,6360,32,6480,32C6600,32,6720,40,6840,52C6960,64,7080,80,7200,72C7320,64,7440,32,7560,32C7680,32,7800,64,7920,64C8040,64,8160,32,8280,32C8400,32,8520,64,8580,80L8640,96L8640,120L8580,120C8520,120,8400,120,8280,120C8160,120,8040,120,7920,120C7800,120,7680,120,7560,120C7440,120,7320,120,7200,120C7080,120,6960,120,6840,120C6720,120,6600,120,6480,120C6360,120,6240,120,6120,120C6000,120,5880,120,5760,120C5640,120,5520,120,5400,120C5280,120,5160,120,5040,120C4920,120,4800,120,4680,120C4560,120,4440,120,4320,120C4200,120,4080,120,3960,120C3840,120,3720,120,3600,120C3480,120,3360,120,3240,120C3120,120,3000,120,2880,120C2760,120,2640,120,2520,120C2400,120,2280,120,2160,120C2040,120,1920,120,1800,120C1680,120,1560,120,1440,120C1320,120,1200,120,1080,120C960,120,840,120,720,120C600,120,480,120,360,120C240,120,120,120,60,120L0,120Z"/></svg>